<?xml version="1.0" standalone="no"?>
<!DOCTYPE svg PUBLIC "-//W3C//DTD SVG 20010904//EN"
 "http://www.w3.org/TR/2001/REC-SVG-20010904/DTD/svg10.dtd">
<svg version="1.0" xmlns="http://www.w3.org/2000/svg"
 width="235.000000pt" height="255.000000pt" viewBox="0 0 235.000000 255.000000"
 preserveAspectRatio="xMidYMid meet">

<g transform="translate(0.000000,255.000000) scale(0.100000,-0.100000)"
fill="#000000" stroke="none">
<path d="M0 1275 l0 -1275 1175 0 1175 0 0 1275 0 1275 -1175 0 -1175 0 0
-1275z m1306 765 c3 0 25 14 49 30 24 17 46 30 49 30 3 0 6 -148 6 -329 l0
-329 125 -87 125 -87 0 -344 0 -344 60 0 60 0 0 -185 0 -185 -655 0 -655 0 0
185 0 185 55 0 55 0 2 362 3 362 93 55 92 56 0 140 0 141 55 33 55 33 0 152 0
152 208 146 207 146 3 -159 c1 -87 5 -159 8 -159z"/>
<path d="M1090 2186 l-185 -132 -3 -132 c-2 -83 1 -132 7 -132 6 0 57 30 115
68 58 37 139 88 180 115 l76 48 0 149 c0 83 -1 150 -2 149 -2 0 -86 -60 -188
-133z"/>
<path d="M1343 2033 l-43 -25 2 -717 c3 -699 3 -705 8 -248 l5 468 35 -26 35
-26 3 151 c1 82 1 217 0 299 l-3 149 -42 -25z"/>
<path d="M1163 1918 c-62 -40 -146 -94 -187 -120 l-74 -47 -1 -126 c-1 -69 1
-125 4 -125 4 0 26 12 50 26 l45 26 2 -186 3 -186 137 82 138 83 0 323 c0 177
-1 322 -3 322 -1 0 -53 -33 -114 -72z"/>
<path d="M830 1705 l-35 -24 3 -125 3 -124 40 26 39 26 0 123 c0 68 -3 123 -7
122 -5 0 -24 -11 -43 -24z"/>
<path d="M939 1487 l-34 -23 -3 -172 -2 -173 40 21 40 20 0 175 c0 96 -2 175
-4 175 -1 0 -18 -10 -37 -23z"/>
<path d="M1332 1023 l3 -438 28 -3 27 -3 0 425 0 425 -22 15 c-12 9 -26 16
-30 16 -5 0 -7 -197 -6 -437z"/>
<path d="M833 1427 l-33 -22 0 -173 0 -173 40 22 40 23 0 173 c0 95 -3 173 -7
172 -5 0 -23 -10 -40 -22z"/>
<path d="M1410 996 l0 -416 115 0 115 0 0 338 -1 337 -107 75 c-59 41 -110 77
-114 78 -5 2 -8 -183 -8 -412z"/>
<path d="M685 1336 l-70 -43 -3 -356 -2 -357 80 0 80 0 0 400 c0 220 -3 400
-7 400 -5 0 -39 -20 -78 -44z"/>
<path d="M1133 1229 l-133 -80 0 -285 0 -284 135 0 135 0 0 365 c0 201 -1 365
-2 365 -2 -1 -63 -37 -135 -81z"/>
<path d="M932 1108 l-32 -20 2 -252 3 -251 38 -3 37 -3 0 275 c0 152 -3 276
-7 275 -5 0 -23 -10 -41 -21z"/>
<path d="M843 1053 c-23 -15 -23 -18 -23 -244 l0 -229 30 0 30 0 0 245 c0 135
-3 245 -7 244 -5 0 -18 -7 -30 -16z"/>
<path d="M1275 515 c-5 -2 -23 -6 -38 -9 -38 -9 -67 -59 -67 -116 0 -52 18
-83 60 -105 37 -19 57 -19 95 1 19 10 31 11 33 5 2 -6 13 -11 23 -11 18 0 20
6 17 63 l-3 62 -55 0 c-49 0 -55 -2 -58 -22 -3 -19 1 -23 22 -23 18 0 24 -4
20 -15 -8 -20 -60 -19 -68 1 -12 30 -6 93 10 108 21 21 31 20 46 -4 13 -21 52
-26 77 -11 12 7 8 15 -17 40 -17 17 -37 31 -45 31 -9 0 -21 2 -29 4 -7 3 -17
3 -23 1z"/>
<path d="M520 395 l0 -115 83 0 c69 0 87 3 100 18 24 26 21 68 -5 87 -21 15
-22 17 -5 26 23 13 22 61 -1 82 -14 13 -38 17 -95 17 l-77 0 0 -115z m118 47
c3 -18 -1 -22 -22 -22 -19 0 -26 5 -26 18 0 39 43 43 48 4z m7 -92 c0 -9 -11
-16 -27 -18 -23 -3 -28 1 -28 18 0 17 5 21 28 18 16 -2 27 -9 27 -18z"/>
<path d="M904 499 c-3 -6 -15 -39 -26 -73 -10 -33 -25 -80 -33 -103 l-13 -43
28 0 c20 0 31 6 35 20 9 29 81 29 90 0 5 -15 15 -20 41 -20 19 0 34 3 34 7 0
5 -16 56 -36 115 l-36 108 -38 0 c-21 0 -42 -5 -46 -11z m46 -71 c0 -7 3 -23
6 -35 5 -19 2 -23 -16 -23 -18 0 -21 4 -16 23 3 12 6 28 6 35 0 6 5 12 10 12
6 0 10 -6 10 -12z"/>
<path d="M1544 487 c-20 -18 -28 -35 -31 -73 -6 -63 8 -99 49 -125 57 -35 146
-7 161 52 4 16 0 19 -28 19 -20 0 -35 -6 -39 -15 -6 -17 -52 -20 -62 -4 -13
22 -5 103 12 116 20 15 41 7 49 -18 5 -14 16 -19 41 -19 32 0 35 2 29 23 -4
12 -17 32 -28 45 -30 32 -115 32 -153 -1z"/>
</g>
</svg>
